<svg xmlns="http://www.w3.org/2000/svg" version="1.0" width="512.000000pt" height="512.000000pt" viewBox="0 0 512.000000 512.000000" preserveAspectRatio="xMidYMid meet">

<g transform="translate(0.000000,512.000000) scale(0.100000,-0.100000)" fill="#2bdcaa" stroke="none">
<path d="M0 4960 l0 -159 43 19 c34 16 63 19 152 18 105 -1 107 -1 39 -8 -60 -5 -81 -12 -125 -43 -30 -20 -66 -39 -81 -43 l-28 -6 0 -94 c0 -66 4 -94 12 -94 9 0 9 -3 0 -12 -15 -15 -16 -118 -1 -118 20 0 113 57 141 87 l27 28 -37 60 c-21 33 -41 65 -45 72 -5 7 1 17 14 23 32 17 71 -3 103 -55 22 -34 39 -47 75 -60 37 -13 310 -75 329 -75 16 0 -95 373 -124 415 -23 33 -16 42 38 49 55 8 94 25 144 62 l31 24 1865 0 1866 0 36 -45 c39 -47 80 -65 148 -65 l36 0 -28 -52 c-16 -29 -51 -123 -79 -208 -48 -146 -58 -190 -46 -190 12 0 283 61 311 71 17 5 54 34 83 64 55 57 74 64 123 42 l27 -12 -57 -69 -57 -69 43 -38 c24 -21 63 -47 88 -59 24 -12 44 -25 44 -29 0 -4 -9 -16 -20 -26 -20 -18 -20 -28 -20 -1863 l0 -1844 -24 -19 c-14 -11 -39 -24 -56 -30 -16 -6 -30 -15 -30 -20 0 -13 38 -87 61 -121 11 -14 19 -29 19 -32 0 -3 -20 -6 -45 -6 -40 0 -47 4 -82 45 -21 25 -48 52 -59 60 -24 15 -219 62 -303 72 -49 6 -53 5 -48 -13 3 -10 15 -64 27 -119 30 -141 49 -215 67 -252 19 -42 11 -63 -24 -63 -39 -1 -107 -33 -127 -61 l-16 -24 -1870 0 -1870 0 0 -23 c0 -19 -8 -13 -50 37 -32 38 -62 63 -85 71 -41 13 -42 17 -15 63 22 38 100 325 100 370 0 33 24 35 -205 -15 -159 -35 -189 -47 -228 -94 -29 -35 -66 -44 -97 -24 -13 8 -13 14 4 44 10 19 32 48 48 65 l30 31 -43 18 c-24 11 -50 21 -57 23 -11 4 -13 334 -13 1848 l0 1843 -25 39 c-13 22 -31 39 -39 39 -13 0 -15 -227 -15 -1922 1 -1816 1 -1921 18 -1895 17 27 45 34 71 18 19 -12 0 -58 -38 -95 l-28 -27 -8 23 c-7 19 -9 13 -12 -27 -4 -48 -3 -51 37 -86 47 -41 97 -59 183 -67 89 -8 73 27 -20 43 -23 3 -47 13 -54 21 -10 12 -4 14 34 14 26 0 66 6 89 14 56 18 208 30 208 16 0 -5 -9 -43 -20 -84 -12 -44 -20 -96 -18 -127 3 -49 1 -54 -23 -63 -46 -16 -58 -4 -48 48 11 62 -3 101 -34 91 -73 -22 -111 -26 -185 -22 -94 6 -127 22 -141 70 -7 23 -9 -23 -10 -160 l-1 -193 80 0 80 0 0 55 c0 59 4 63 34 40 26 -20 95 -19 117 1 16 15 19 13 43 -23 49 -74 47 -73 126 -73 l72 0 -14 22 c-18 28 -79 64 -130 78 -22 6 -38 17 -38 25 0 12 17 14 87 13 l87 -2 66 -61 c36 -33 67 -63 68 -67 2 -5 858 -8 1902 -8 l1898 0 6 25 c7 28 59 91 88 106 14 7 23 7 33 -1 10 -8 34 -10 76 -5 54 6 60 5 57 -10 -2 -10 -24 -24 -56 -34 -50 -17 -102 -54 -102 -73 0 -4 26 -8 59 -8 l58 0 52 59 51 59 30 -15 c19 -9 50 -14 80 -11 l50 3 0 -47 0 -48 80 0 80 0 0 148 0 147 -159 2 -158 3 -22 -78 -23 -77 -34 71 c-21 43 -41 104 -50 154 -8 46 -13 84 -12 86 3 2 74 -9 163 -24 36 -7 40 -10 37 -35 -4 -34 25 -47 106 -47 62 0 109 19 104 41 -2 8 0 11 4 6 4 -4 16 0 26 10 17 15 18 92 18 2060 l0 2043 -50 0 c-58 0 -63 11 -23 52 29 30 43 35 43 15 0 -7 7 -22 15 -33 13 -17 14 -11 15 68 0 83 -1 88 -25 104 -14 9 -36 18 -48 19 -12 1 -27 3 -33 4 -7 0 -14 8 -17 15 -4 11 -1 13 11 9 15 -6 16 -5 2 12 -8 10 -28 26 -45 37 l-30 18 38 0 c21 0 62 -9 92 -19 l55 -19 0 164 0 164 -75 0 -75 0 0 -62 c0 -39 -4 -58 -9 -49 -7 10 -23 12 -72 6 -35 -4 -69 -11 -76 -17 -8 -6 -17 10 -33 57 l-22 65 -69 0 c-38 0 -69 -4 -69 -8 0 -13 41 -47 87 -72 24 -13 43 -28 43 -32 0 -21 -22 -48 -40 -48 -27 0 -35 19 -14 35 17 13 9 14 -59 8 -71 -5 -80 -4 -101 16 -13 12 -31 40 -41 62 l-18 39 -1907 0 -1906 0 -32 -45 c-37 -53 -63 -65 -141 -65 -56 0 -58 -1 -54 -24 6 -30 -11 -41 -32 -20 -15 15 -14 17 2 31 13 11 10 11 -9 -1 -16 -9 -28 -12 -28 -7 0 14 61 63 121 96 l54 30 -99 3 c-54 1 -100 1 -102 -1 -2 -2 -5 -24 -7 -48 -3 -49 8 -46 -122 -41 l-55 2 0 45 0 45 -80 0 -80 0 0 -160z m4786 -71 c7 -45 19 -86 26 -90 7 -5 35 -9 61 -9 47 0 87 -13 87 -28 0 -25 -278 -108 -296 -89 -4 4 10 55 31 114 21 60 44 127 53 151 8 23 17 40 20 38 2 -3 11 -42 18 -87z m-4398 37 c23 -38 72 -193 72 -225 0 -12 -3 -21 -7 -21 -34 0 -213 47 -233 61 -14 9 -41 19 -60 21 l-35 3 25 14 c13 8 60 18 104 22 46 5 83 13 87 21 5 7 9 31 9 53 0 37 9 85 15 85 2 0 12 -15 23 -34z m4530 -103 c-10 -2 -26 -2 -35 0 -10 3 -2 5 17 5 19 0 27 -2 18 -5z m-4823 -253 c18 -20 17 -20 -10 -20 -22 0 -25 3 -16 13 6 8 8 17 4 20 -3 4 -4 7 -1 7 3 0 13 -9 23 -20z m4948 -3998 c-3 -11 17 -17 41 -13 9 2 -1 -50 -13 -62 -5 -4 -15 3 -25 17 -9 15 -24 38 -33 52 -16 25 -16 26 8 22 13 -2 23 -9 22 -16z m66 1 c0 -11 -3 -13 -6 -5 -2 6 -9 10 -14 6 -5 -3 -9 0 -9 5 0 6 7 11 15 11 8 0 15 -8 14 -17z m-124 -183 c7 -12 -22 -12 -50 0 -17 7 -15 9 12 9 17 1 35 -3 38 -9z" fill="#2bdcaa"/>
<path d="M221 5099 c12 -23 42 -22 47 1 2 10 -7 16 -28 17 -28 2 -29 0 -19 -18z" fill="#2bdcaa"/>
<path d="M4840 5111 c0 -17 37 -54 48 -47 12 7 5 37 -12 48 -15 11 -36 10 -36 -1z" fill="#2bdcaa"/>
<path d="M2503 4863 c-62 -3 -83 -7 -83 -17 0 -8 -7 -16 -15 -20 -10 -3 -15 1 -15 11 0 14 -10 15 -75 10 -42 -4 -86 -14 -99 -22 -15 -10 -34 -13 -49 -10 -31 8 -213 -30 -292 -60 -33 -13 -116 -44 -185 -69 -553 -199 -990 -607 -1238 -1156 -52 -114 -132 -385 -132 -445 0 -7 10 -15 23 -19 20 -5 22 -10 19 -41 -5 -42 -14 -44 -40 -9 l-19 27 -12 -74 c-13 -82 -29 -332 -25 -394 1 -22 5 -103 9 -180 5 -126 15 -220 31 -298 7 -34 35 -36 57 -5 15 22 15 21 15 -29 0 -29 -3 -53 -6 -53 -3 0 -19 12 -35 28 l-29 27 6 -25 c3 -14 8 -43 11 -65 19 -122 93 -331 175 -496 172 -347 547 -744 887 -940 324 -188 721 -300 1108 -315 235 -9 392 10 685 82 133 33 421 158 575 249 327 193 652 525 847 865 45 79 114 250 160 400 54 173 63 210 50 210 -11 0 -35 60 -27 68 3 3 14 -3 25 -13 11 -10 22 -16 24 -14 5 5 26 220 26 268 0 25 -4 32 -14 28 -24 -9 -66 31 -66 61 l1 27 32 -38 c18 -21 36 -35 40 -31 11 11 8 371 -4 486 -14 138 -18 156 -30 137 -8 -11 -15 -8 -39 19 -30 32 -50 35 -50 6 0 -8 -2 -14 -5 -14 -2 0 -33 28 -68 63 -61 60 -62 62 -26 44 21 -10 43 -25 50 -33 18 -22 37 -16 41 14 l3 27 18 -33 c16 -30 63 -60 75 -48 10 10 -21 133 -70 281 -161 483 -497 909 -918 1162 -199 120 -506 252 -690 298 -58 14 -113 29 -124 32 -16 4 -17 1 -11 -35 4 -25 2 -42 -4 -47 -7 -4 -11 5 -11 24 0 32 -16 41 -38 19 -9 -9 -12 -5 -12 18 l0 31 -82 11 c-116 17 -121 16 -108 -7 14 -26 14 -26 -16 -26 -21 0 -25 4 -21 22 3 17 -2 22 -26 27 -16 3 -46 5 -66 4 -20 -1 -73 -4 -118 -5z m-62 -96 c-10 -9 -11 -8 -5 6 3 10 9 15 12 12 3 -3 0 -11 -7 -18z m-266 -59 c14 -6 25 -15 25 -20 0 -12 -11 -9 -50 12 -38 21 -18 28 25 8z m235 -4 c0 -14 -3 -14 -15 -4 -8 7 -15 14 -15 16 0 2 7 4 15 4 8 0 15 -7 15 -16z m-331 -34 c-18 -22 -37 -40 -43 -40 -5 0 -2 6 9 13 19 14 13 37 -9 37 -17 0 -59 -47 -86 -97 -13 -24 -30 -43 -37 -43 -18 0 -16 19 2 27 26 9 48 62 34 79 -9 11 -8 14 6 14 10 0 33 9 52 21 18 12 43 19 53 16 11 -3 23 -1 26 4 3 5 10 9 15 9 5 0 -5 -18 -22 -40z m280 -24 c-4 -5 -15 -6 -24 -3 -14 6 -14 10 2 39 l17 33 6 -30 c4 -16 3 -34 -1 -39z m890 44 c4 0 5 -17 2 -37 -4 -34 -5 -35 -11 -13 -3 14 -16 30 -29 36 -16 8 -19 13 -9 17 7 3 19 4 26 1 8 -2 17 -4 21 -4z m70 -23 c17 -44 17 -71 0 -75 -14 -2 -18 7 -20 47 -4 54 6 67 20 28z m-176 -25 c-3 -12 -9 -19 -14 -16 -5 3 -3 14 3 24 15 24 19 21 11 -8z m-1233 -9 c-1 -14 -40 -56 -46 -50 -3 3 2 17 13 31 18 25 33 34 33 19z m880 -28 c242 -39 453 -105 690 -216 371 -174 569 -341 787 -665 133 -198 254 -549 309 -897 44 -274 32 -470 -46 -777 -55 -216 -84 -316 -132 -444 -44 -118 -102 -207 -272 -414 -135 -166 -160 -192 -211 -230 -81 -59 -274 -181 -355 -224 -41 -22 -89 -50 -107 -64 -17 -13 -36 -24 -42 -24 -5 0 -14 -6 -18 -13 -4 -7 -30 -18 -58 -23 -27 -6 -158 -38 -290 -71 -236 -60 -393 -93 -435 -93 -43 0 -34 52 19 108 45 46 52 73 49 176 -2 50 0 100 4 111 6 16 1 24 -22 37 -37 21 -47 44 -32 69 7 10 12 21 12 24 0 7 -81 65 -90 65 -4 0 -5 -20 -3 -44 4 -36 0 -54 -20 -89 -25 -42 -26 -52 -28 -192 l-1 -147 36 -37 c41 -42 47 -76 14 -84 -12 -3 -29 -2 -37 3 -9 4 -80 18 -156 29 -154 24 -554 118 -570 135 -5 6 -23 17 -40 24 -62 28 -244 137 -337 203 -54 37 -130 87 -168 110 -41 24 -77 54 -85 70 -8 15 -21 32 -29 36 -20 12 -135 147 -205 243 -106 144 -192 321 -267 550 -143 436 -161 738 -68 1152 47 209 99 360 183 528 156 313 346 551 541 679 114 75 371 203 495 246 218 78 519 152 625 156 25 0 70 7 100 14 30 7 66 11 80 9 14 -3 95 -16 180 -29z m826 -19 c10 -8 16 -17 12 -21 -8 -8 -48 13 -48 25 0 14 13 12 36 -4z m-326 -26 c0 -11 -4 -20 -10 -20 -5 0 -10 2 -10 4 0 2 -3 11 -6 20 -4 11 -1 16 10 16 9 0 16 -8 16 -20z m-1720 -19 c0 -5 -9 -7 -20 -4 -11 3 -20 7 -20 9 0 2 9 4 20 4 11 0 20 -4 20 -9z m49 -35 c-2 -2 -15 -7 -29 -11 l-25 -8 25 21 c14 11 27 16 29 11 1 -6 1 -12 0 -13z m151 -22 c0 -14 -48 -39 -57 -30 -7 6 41 53 50 49 4 -2 7 -11 7 -19z m1910 22 c0 -3 -4 -8 -10 -11 -5 -3 -10 -1 -10 4 0 6 5 11 10 11 6 0 10 -2 10 -4z m-2117 -87 c-5 -5 -34 -4 -68 2 -53 10 -60 9 -86 -11 -38 -27 -37 -16 2 22 19 19 33 27 37 21 4 -6 28 -14 55 -18 42 -7 47 -5 47 12 0 31 15 38 18 8 2 -15 0 -31 -5 -36z m2121 19 c16 -11 -16 -10 -33 1 -9 6 -11 16 -7 27 7 18 8 18 18 -1 6 -11 16 -23 22 -27z m-2331 -25 c20 -12 3 -20 -23 -10 -25 10 -33 9 -40 -3 -14 -22 -12 -30 6 -30 17 0 14 -22 -4 -28 -20 -6 -36 42 -22 67 9 19 17 21 43 15 18 -3 35 -8 40 -11z m2416 -37 c36 -63 37 -66 12 -66 -15 0 -20 10 -25 45 -4 24 -11 47 -17 50 -9 6 -13 25 -5 25 3 0 18 -24 35 -54z m131 16 c0 -14 -7 -17 -45 -14 -55 5 -59 19 -7 25 20 2 40 4 45 5 4 1 7 -6 7 -16z m36 -80 c-9 -8 -26 10 -26 26 1 15 2 15 15 -2 8 -11 13 -21 11 -24z m-2729 -4 c-3 -8 -6 -5 -6 6 -1 11 2 17 5 13 3 -3 4 -12 1 -19z m2733 -34 c0 -17 -22 -14 -28 4 -2 7 3 12 12 12 9 0 16 -7 16 -16z m-2766 -86 c-7 -38 -30 -78 -44 -78 -15 0 -12 16 5 30 8 7 17 27 21 46 3 19 10 34 15 34 5 0 6 -15 3 -32z m2829 -45 c2 -32 3 -60 1 -62 -7 -7 -34 68 -34 94 0 15 6 25 14 25 9 0 15 -18 19 -57z m-3017 -95 c-3 -13 -6 -32 -6 -43 0 -19 -2 -18 -19 4 -14 18 -25 23 -50 19 -21 -3 -31 0 -31 9 0 9 14 13 45 13 25 0 45 5 45 10 0 6 5 10 11 10 7 0 9 -9 5 -22z m3204 7 c14 -8 35 -14 47 -15 12 0 25 -5 28 -11 12 -19 -2 -21 -34 -5 -37 19 -75 21 -66 4 4 -7 -1 -4 -9 6 -30 37 -12 48 34 21z m-3325 -145 c-10 -11 -23 -20 -28 -20 -6 0 0 11 13 25 27 29 42 25 15 -5z m-91 -8 c18 -14 20 -20 10 -29 -13 -13 -25 -4 -37 30 -8 22 -1 22 27 -1z m3516 3 c11 -13 8 -15 -19 -15 -21 0 -31 5 -31 15 0 8 8 15 19 15 10 0 24 -7 31 -15z m130 -16 c13 -23 13 -86 1 -94 -6 -3 -13 15 -16 40 -8 47 -18 56 -33 29 -7 -13 -11 -12 -25 10 -15 23 -15 25 1 29 38 8 63 4 72 -14z m-3698 -24 c3 -14 1 -25 -4 -25 -5 0 -13 -10 -18 -22 -8 -21 -9 -20 -9 9 -2 58 22 87 31 38z m53 -35 c12 -20 24 -70 17 -74 -4 -2 -16 16 -28 40 -15 32 -17 44 -8 44 7 0 16 -5 19 -10z m3581 -41 c-7 -39 8 -69 37 -70 l22 -2 -22 -4 c-30 -6 -63 14 -63 37 0 20 20 70 28 70 2 0 2 -14 -2 -31z m-3601 -49 c-9 -10 -20 -40 -23 -65 -2 -25 -8 -48 -12 -50 -17 -11 4 91 23 113 11 12 23 22 25 22 3 0 -3 -9 -13 -20z m3778 -137 c7 -36 4 -38 -32 -22 l-31 14 22 17 c31 24 35 23 41 -9z m-3839 -26 c7 -20 6 -30 -3 -40 -11 -10 -15 -9 -19 2 -3 8 -15 25 -28 37 -23 24 -16 34 21 31 11 -1 24 -13 29 -30z m3950 -65 c3 -5 -6 -35 -20 -68 l-25 -59 6 50 c3 28 8 58 11 68 6 18 19 23 28 9z m-4118 -120 c-12 -11 -27 15 -31 54 l-5 39 21 -43 c11 -24 18 -46 15 -50z m11 -44 c-3 -7 -5 -2 -5 12 0 14 2 19 5 13 2 -7 2 -19 0 -25z m4063 -63 c-16 -19 -6 -45 16 -45 15 0 14 -4 -6 -25 -18 -19 -26 -22 -32 -13 -14 23 -9 81 9 100 20 22 32 6 13 -17z m-4040 -41 c0 -44 0 -44 -24 -29 -23 15 -23 16 -7 49 21 43 31 36 31 -20z m4131 -24 c10 -6 19 -20 19 -30 0 -29 -13 -25 -33 10 -19 32 -17 36 14 20z m-4159 -82 c-12 -12 -24 -19 -27 -16 -4 3 4 15 16 27 29 27 39 17 11 -11z m-131 -70 c-18 -19 -21 -19 -21 -4 0 9 8 31 17 49 l18 32 3 -27 c2 -17 -4 -36 -17 -50z m62 0 c-17 -18 -33 -40 -36 -48 -4 -11 -6 -10 -6 4 -1 21 45 76 63 76 5 0 -4 -15 -21 -32z m4210 -91 c-3 -20 -10 -37 -14 -37 -12 0 -11 10 2 49 14 41 20 35 12 -12z m-4183 -51 c0 -6 -11 5 -25 24 -14 19 -25 36 -25 39 0 10 49 -53 50 -63z m-41 -167 c-39 -50 -76 -66 -98 -45 -8 9 -12 19 -8 23 4 3 13 1 19 -5 20 -20 37 -14 73 26 36 38 44 69 23 90 -9 9 -9 12 0 12 7 0 13 8 14 18 1 9 3 -5 5 -31 4 -42 0 -53 -28 -88z m4241 111 c0 -5 -9 -10 -20 -10 -11 0 -20 5 -20 10 0 6 9 10 20 10 11 0 20 -4 20 -10z m111 -164 c-12 -12 -21 -30 -21 -39 0 -9 -3 -17 -7 -17 -9 1 -73 57 -73 65 0 3 17 3 38 -1 28 -4 41 -2 51 10 7 9 18 13 23 10 5 -3 0 -16 -11 -28z m-4427 -292 c40 -34 54 -56 29 -47 -10 3 -26 13 -36 21 -16 14 -20 13 -42 -8 -14 -13 -25 -21 -25 -17 0 10 33 77 38 77 2 0 18 -12 36 -26z m67 -81 c13 -16 12 -17 -3 -4 -10 7 -18 15 -18 17 0 8 8 3 21 -13z m4248 -79 c-35 -87 -67 -127 -53 -66 13 56 44 116 55 105 7 -7 6 -19 -2 -39z m-4209 -49 c0 -33 -2 -35 -20 -25 -23 12 -26 30 -8 48 20 20 28 14 28 -23z m4252 -57 c24 -43 45 -117 37 -130 -6 -9 -9 -7 -9 8 0 12 -9 33 -21 48 -13 16 -19 35 -16 47 3 12 0 22 -9 26 -16 6 -19 23 -4 23 5 0 15 -10 22 -22z m-4265 -67 c-14 -17 -28 -49 -32 -76 -4 -32 -10 -44 -17 -37 -14 14 5 76 39 124 15 22 29 35 31 29 2 -6 -7 -24 -21 -40z m4173 9 c0 -5 -4 -10 -10 -10 -5 0 -10 5 -10 10 0 6 5 10 10 10 6 0 10 -4 10 -10z m70 -60 c0 -11 -23 -30 -37 -30 -8 0 -13 12 -13 30 0 28 1 29 25 18 14 -6 25 -14 25 -18z m-70 -63 c-8 -7 -26 -24 -38 -39 -23 -25 -23 -27 -7 -51 16 -24 15 -26 -4 -36 -21 -12 -28 -6 -26 19 1 8 3 32 3 52 2 30 8 40 30 52 15 8 34 15 42 15 13 0 13 -1 0 -12z m-4110 -32 c7 -9 10 -18 7 -22 -8 -7 -37 15 -37 28 0 14 16 11 30 -6z m-12 -48 c41 -10 42 -11 42 -53 0 -24 -4 -46 -10 -49 -5 -3 -10 2 -10 13 0 20 -40 62 -77 81 -27 14 -32 37 -5 26 9 -4 36 -12 60 -18z m4150 -217 c12 -50 9 -59 -16 -44 -20 13 -26 45 -17 81 8 33 19 20 33 -37z m-4148 3 c0 -10 -42 -53 -52 -53 -18 0 -7 38 15 48 27 13 37 14 37 5z m96 -148 c36 0 40 -2 31 -17 -10 -15 -14 -15 -51 -1 -23 9 -45 20 -51 26 -7 7 -3 7 10 1 11 -4 38 -8 61 -9z m3883 -29 c-10 -21 -14 -23 -31 -13 -18 11 -17 13 9 24 15 7 29 12 30 13 2 0 -2 -11 -8 -24z m-77 -22 c-28 -19 -29 -44 -1 -44 11 0 17 -4 14 -10 -8 -13 -52 -13 -60 0 -11 17 6 51 28 60 35 14 43 11 19 -6z m-3708 -73 c3 -5 -3 -11 -14 -14 -20 -5 -26 3 -13 16 9 10 21 9 27 -2z m60 -74 c-7 -18 -24 -23 -24 -8 0 22 13 42 22 33 5 -5 6 -16 2 -25z m3576 3 c12 -8 11 -10 -7 -10 -12 0 -25 5 -28 10 -8 13 15 13 35 0z m-3639 -31 c15 -15 18 -24 10 -32 -13 -13 -26 -2 -36 31 -8 28 -1 28 26 1z m118 -8 c7 -5 10 -14 6 -20 -5 -9 -10 -9 -21 0 -26 22 -14 38 15 20z m3594 -8 c-7 -2 -21 -2 -30 0 -10 3 -4 5 12 5 17 0 24 -2 18 -5z m-84 -49 c-10 -23 -13 -25 -16 -11 -3 10 1 25 8 33 17 21 21 11 8 -22z m-3549 6 c0 -23 -10 -26 -28 -8 -18 18 -15 28 8 28 13 0 20 -7 20 -20z m3495 -70 c-28 -12 -45 -12 -45 0 0 6 15 10 33 9 27 0 29 -2 12 -9z m-3319 -45 c7 -19 14 -46 14 -61 l0 -26 -31 26 c-17 14 -39 26 -50 26 -10 0 -19 4 -19 9 0 6 12 9 28 8 23 -2 28 2 30 26 4 36 10 34 28 -8z m3245 23 c1 -7 1 -19 0 -25 -1 -7 3 -13 10 -13 7 0 -3 -14 -20 -31 -36 -34 -51 -32 -33 4 6 12 13 34 16 50 6 27 25 38 27 15z m-3066 -158 c3 -6 -1 -7 -9 -4 -18 7 -21 14 -7 14 6 0 13 -4 16 -10z m2861 -6 c-3 -9 -6 -30 -7 -47 l-1 -32 -10 32 c-11 34 -5 63 13 63 6 0 8 -7 5 -16z m-2820 -39 c16 -39 18 -55 6 -55 -8 0 -32 65 -32 84 0 16 12 3 26 -29z m2752 -27 c-3 -36 -15 -42 -31 -17 -13 21 -2 49 18 49 12 0 15 -8 13 -32z m-2685 -25 c2 -10 8 -27 12 -38 7 -19 6 -18 -14 2 -21 22 -29 53 -12 53 5 0 11 -8 14 -17z m87 -148 c0 -11 -14 7 -31 40 -7 13 -3 12 10 -5 11 -14 21 -29 21 -35z m2621 32 c-10 -9 -11 -8 -5 6 3 10 9 15 12 12 3 -3 0 -11 -7 -18z m-67 -39 c6 -4 -3 -8 -21 -8 -40 0 -63 -9 -63 -24 0 -7 -7 -21 -15 -32 -14 -18 -14 -17 -8 15 l6 34 -37 -7 c-26 -5 -36 -4 -31 3 3 6 23 11 44 11 24 0 49 9 72 25 31 24 34 24 38 8 2 -10 8 -21 15 -25z m-2484 -18 c0 -5 -9 -14 -20 -20 -20 -10 -28 -50 -11 -50 5 0 28 7 51 15 47 17 59 15 36 -4 -14 -11 -13 -16 1 -37 19 -29 3 -32 -23 -3 -13 15 -26 19 -46 15 -49 -10 -75 38 -41 76 17 19 53 25 53 8z m-95 -9 c7 -12 -31 -25 -45 -16 -6 4 -8 11 -5 16 8 12 42 12 50 0z m2385 -45 c0 -15 -24 -66 -31 -66 -5 0 -4 12 1 26 6 14 8 30 4 35 -3 5 2 9 10 9 9 0 16 -2 16 -4z m-2131 -51 l0 -20 -9 20 c-5 11 -9 27 -9 35 -1 13 0 13 9 0 5 -8 9 -24 9 -35z m205 -24 c3 -5 -1 -12 -10 -15 -25 -10 -34 -7 -34 9 0 16 35 21 44 6z m52 -38 c-7 -7 -26 7 -26 19 0 6 6 6 15 -2 9 -7 13 -15 11 -17z m1501 5 c-3 -8 -6 -5 -6 6 -1 11 2 17 5 13 3 -3 4 -12 1 -19z m288 12 c-3 -5 -10 -10 -16 -10 -5 0 -9 5 -9 10 0 6 7 10 16 10 8 0 12 -4 9 -10z m-2020 -40 c20 -39 19 -41 -12 -28 -38 16 -57 34 -49 47 13 21 45 11 61 -19z m2005 -5 c11 -13 8 -15 -15 -15 -23 0 -26 2 -15 15 7 8 14 15 15 15 1 0 8 -7 15 -15z m-417 -62 c9 -3 17 -9 17 -14 0 -12 -11 -11 -43 4 -29 13 -38 34 -9 22 9 -4 25 -10 35 -12z m-1128 -34 c36 -19 37 -20 10 -14 -16 3 -37 13 -45 21 -20 19 -11 18 35 -7z m901 -38 c27 -5 41 -9 32 -10 -9 0 -31 -18 -48 -38 -31 -37 -32 -37 -14 -6 10 18 16 34 13 36 -2 1 -23 16 -46 31 -24 16 -43 33 -43 39 0 6 13 -2 29 -17 18 -18 45 -30 77 -35z m-950 -1 c8 0 14 -5 14 -11 0 -7 -7 -8 -17 -4 -10 4 -28 10 -41 12 -29 7 -37 20 -22 38 11 13 15 11 32 -10 11 -14 26 -25 34 -25z m1239 31 c0 -13 -20 -22 -92 -45 -14 -5 -23 -3 -23 3 0 6 11 11 25 11 14 0 31 10 42 25 19 26 48 30 48 6z m-120 -1 c-3 -5 -10 -10 -16 -10 -5 0 -9 5 -9 10 0 6 7 10 16 10 8 0 12 -4 9 -10z m-885 -14 c-18 -17 -59 -25 -60 -11 0 6 14 13 32 16 18 4 35 7 38 8 2 0 -2 -5 -10 -13z m201 -35 c-37 -46 -38 -54 -8 -74 30 -20 21 -26 -32 -18 l-43 6 21 19 c12 11 21 23 21 28 0 14 51 78 62 78 5 0 -4 -18 -21 -39z m-291 4 c11 -13 9 -15 -13 -15 -14 0 -27 7 -31 15 -3 10 1 15 13 15 10 0 24 -7 31 -15z m933 -9 c8 5 8 3 -1 -9 -11 -13 -17 -14 -33 -4 -25 16 -24 31 1 17 11 -6 26 -8 33 -4z m-299 -41 l16 -25 -35 0 c-33 0 -34 1 -23 25 6 14 14 25 18 25 4 0 15 -11 24 -25z" fill="#2bdcaa"/>
<path d="M2540 4527 l-45 -51 -5 -105 c-6 -135 16 -209 75 -253 23 -17 24 -17 54 18 20 22 31 45 31 64 0 20 5 30 15 30 13 0 14 18 9 123 -7 129 -15 156 -61 199 l-28 26 -45 -51z" fill="#2bdcaa"/>
<path d="M1831 4363 c-23 -27 -41 -55 -41 -63 0 -49 23 -139 42 -165 12 -16 29 -57 38 -90 13 -46 23 -63 43 -73 41 -20 33 -39 -25 -56 -76 -22 -94 -39 -113 -101 l-16 -55 -54 31 -55 31 -20 -45 c-21 -47 -44 -63 -75 -51 -15 6 -16 3 -10 -27 4 -19 13 -41 21 -50 8 -8 14 -18 14 -21 0 -3 -31 -13 -69 -23 -103 -25 -123 -41 -172 -140 -46 -92 -43 -89 -106 -70 -29 9 -30 -5 -3 -137 12 -55 19 -103 16 -105 -4 -4 -88 -19 -151 -26 -12 -1 -24 6 -30 21 -5 12 -13 22 -18 22 -9 0 -4 -10 25 -52 22 -32 23 -56 2 -79 -13 -15 -14 -24 -4 -53 6 -19 20 -46 30 -59 l19 -24 -40 -39 c-57 -55 -119 -164 -119 -208 0 -20 -2 -36 -4 -36 -2 0 -25 10 -51 21 -40 18 -62 21 -128 17 -74 -5 -81 -7 -103 -36 -13 -17 -37 -33 -53 -37 -16 -3 -37 -15 -47 -26 -18 -20 -18 -21 6 -40 14 -11 42 -29 62 -41 21 -12 38 -28 38 -35 0 -10 22 -13 89 -13 l90 0 65 45 c71 48 116 58 116 26 0 -21 -53 -71 -76 -71 -11 0 -13 -7 -8 -27 9 -36 61 -140 74 -148 6 -3 19 -24 30 -45 19 -38 19 -39 0 -116 -11 -42 -20 -92 -20 -110 0 -32 0 -33 73 -48 39 -8 83 -17 97 -18 22 -3 25 -8 26 -48 0 -25 5 -53 9 -64 4 -10 4 -21 -2 -25 -18 -12 -66 -82 -60 -87 3 -3 37 2 75 12 l70 18 66 -28 c73 -31 101 -59 117 -118 5 -22 13 -46 16 -53 4 -13 -1 -13 -42 -1 -58 18 -76 34 -132 116 -42 61 -44 63 -38 30 9 -48 49 -127 89 -174 30 -36 37 -39 90 -42 31 -1 64 -8 72 -15 23 -19 46 -69 40 -85 -3 -8 0 -14 7 -14 7 0 18 -9 25 -20 17 -28 27 -25 72 20 22 22 49 40 60 40 18 0 20 -7 20 -74 0 -66 3 -77 22 -90 28 -20 65 -20 113 0 44 18 69 12 61 -14 -4 -10 1 -27 9 -38 16 -19 16 -19 28 1 7 11 37 45 68 75 50 49 126 167 114 178 -8 9 -60 -40 -92 -88 -40 -60 -82 -80 -162 -79 -82 1 -135 19 -139 47 -3 21 -1 23 30 17 18 -3 67 -9 108 -14 41 -4 83 -11 93 -16 25 -11 22 18 -7 51 -23 28 -24 28 -50 11 -25 -17 -107 -29 -133 -20 -8 3 -10 20 -6 54 l6 49 -39 0 c-43 0 -112 -28 -133 -54 -11 -13 -17 -14 -28 -4 -13 11 -53 80 -53 93 0 3 15 5 34 5 19 0 43 8 55 18 23 19 76 132 62 132 -5 0 -30 -24 -55 -54 -32 -37 -56 -56 -78 -60 -38 -7 -40 -4 -68 85 -15 52 -29 75 -61 104 -49 44 -110 73 -173 81 -42 6 -46 9 -39 28 9 26 9 62 1 102 -6 27 -4 33 14 37 12 3 40 -3 64 -13 23 -11 67 -23 98 -26 53 -6 56 -5 56 15 0 19 -6 21 -48 21 -27 0 -52 3 -55 7 -19 18 246 136 422 188 63 19 116 33 118 32 7 -7 -113 -258 -142 -297 -19 -25 -64 -89 -101 -144 -37 -54 -75 -101 -85 -103 -10 -3 -16 -9 -13 -14 13 -22 52 -4 147 69 56 44 150 111 209 150 58 39 109 76 113 82 3 5 11 10 17 10 11 0 6 -293 -8 -497 -5 -65 -3 -93 4 -93 6 0 16 17 22 38 15 56 59 127 170 274 56 73 104 145 107 161 3 15 8 27 12 27 11 0 79 -197 116 -340 20 -74 38 -140 40 -147 2 -7 -3 -19 -11 -28 -9 -8 -11 -15 -5 -15 6 0 15 -18 21 -41 13 -45 29 -47 43 -3 6 16 17 34 26 41 14 11 13 12 -6 13 -18 0 -23 6 -23 28 -1 32 141 512 151 512 4 0 10 -15 13 -32 3 -18 28 -62 54 -98 78 -105 145 -201 172 -245 39 -64 93 -135 102 -135 4 0 -2 24 -14 53 -19 46 -21 77 -26 286 l-5 234 49 -28 c65 -38 255 -167 304 -207 40 -31 76 -39 118 -25 26 10 30 -7 6 -30 -11 -11 -14 -27 -11 -50 7 -39 4 -39 -46 -13 -20 11 -37 18 -37 15 0 -3 17 -32 38 -64 45 -67 79 -179 57 -188 -21 -7 -33 4 -56 50 -28 54 -33 57 -100 57 l-56 0 -7 -67 c-4 -38 -14 -79 -23 -92 -13 -21 -21 -23 -65 -19 -48 5 -86 26 -62 35 6 2 20 10 30 18 18 13 18 15 -4 37 -23 23 -23 23 -38 3 -8 -11 -13 -31 -12 -45 3 -22 -1 -25 -34 -28 -32 -3 -39 1 -51 25 -8 15 -20 46 -26 68 -25 93 -68 101 -49 10 6 -32 26 -72 54 -109 24 -32 48 -74 55 -93 13 -41 30 -38 42 8 14 54 34 70 76 63 40 -7 81 -39 81 -62 0 -8 -20 -34 -44 -56 -24 -23 -62 -67 -85 -98 l-42 -58 23 -31 c13 -17 46 -74 74 -127 l50 -96 64 -23 c35 -12 64 -21 65 -20 1 1 7 21 14 45 10 36 10 51 -4 91 -8 26 -18 58 -20 71 -2 13 -13 31 -24 41 -23 21 -41 78 -41 127 0 25 -4 32 -19 32 -10 0 -22 7 -25 16 -8 20 21 80 48 100 14 11 17 18 9 21 -19 7 -16 24 7 48 11 12 24 42 29 69 5 26 11 50 15 53 14 15 53 -18 75 -63 13 -27 25 -51 27 -53 7 -8 114 45 114 56 0 23 -38 115 -56 134 -29 32 -4 44 94 44 82 0 90 2 134 33 31 22 50 44 58 68 19 55 -1 60 -43 10 -38 -46 -107 -86 -147 -86 -21 0 -22 2 -8 18 8 9 21 38 28 64 15 55 31 72 89 93 52 18 90 19 142 3 22 -6 42 -9 44 -6 6 6 -10 86 -19 96 -4 3 -14 -4 -22 -17 -11 -15 -20 -19 -27 -12 -16 13 -106 -3 -153 -27 -47 -24 -67 -46 -87 -94 -12 -29 -19 -35 -36 -31 -14 3 -21 13 -21 29 0 20 -5 24 -33 24 -45 0 -56 11 -123 115 -31 50 -72 108 -90 130 -17 22 -57 88 -88 146 l-56 106 88 -22 c243 -60 481 -167 457 -205 -4 -6 -15 -10 -26 -10 -12 0 -19 -5 -16 -12 3 -9 24 -12 73 -10 70 4 117 22 56 22 -45 0 -40 13 19 49 l50 32 -7 -96 c-7 -93 -6 -95 15 -95 20 0 21 5 21 91 l0 92 45 -6 c25 -2 54 -12 65 -22 23 -21 46 -14 61 18 8 18 6 36 -11 83 -12 32 -24 66 -27 75 -3 10 9 33 30 55 37 42 67 96 87 157 11 36 10 40 -24 90 -39 56 -45 91 -20 105 13 7 6 19 -40 67 -47 49 -56 65 -56 95 1 19 7 46 14 59 l14 25 28 -42 c16 -23 37 -41 47 -42 9 0 17 3 17 7 0 11 -52 96 -82 134 l-29 36 20 44 c20 45 48 147 58 209 5 34 4 34 -11 13 -9 -12 -37 -29 -62 -39 -41 -15 -44 -19 -25 -26 11 -4 21 -14 21 -23 0 -24 -38 -132 -66 -187 l-25 -49 20 -28 c11 -16 33 -66 49 -112 16 -46 32 -91 36 -99 5 -13 -7 -18 -66 -29 -97 -17 -236 -12 -243 9 -3 9 -34 23 -72 34 -38 10 -113 37 -168 58 -55 22 -111 44 -123 49 -23 9 -20 12 50 65 40 31 93 75 118 99 25 23 93 79 152 123 90 70 112 82 145 82 32 0 44 -6 76 -42 l38 -43 -6 40 c-4 22 -14 52 -23 67 -9 15 -14 30 -11 33 3 2 30 9 60 13 l54 9 -37 16 c-21 10 -45 17 -54 17 -14 0 -16 8 -10 58 3 31 9 74 12 96 8 46 -9 62 -40 40 -46 -32 -119 -7 -192 66 -29 30 -57 50 -61 46 -13 -13 51 -119 86 -143 20 -13 57 -25 93 -29 l60 -7 -8 -71 c-9 -81 -8 -92 1 -126 l7 -25 -19 23 c-16 19 -25 22 -54 17 -19 -3 -58 1 -86 8 -56 15 -64 13 -35 -9 16 -13 15 -15 -8 -36 -40 -34 -279 -144 -350 -161 -100 -23 -130 -27 -130 -17 0 5 31 55 68 112 82 124 232 374 232 387 0 5 15 22 34 38 19 15 44 45 56 66 25 42 27 43 98 22 34 -10 71 -33 108 -65 32 -28 62 -50 68 -50 6 0 -1 10 -17 21 -15 12 -39 41 -53 65 -37 63 -66 82 -135 90 l-59 7 0 42 c0 50 -23 79 -34 43 l-7 -23 -11 25 c-7 14 -20 43 -30 64 -10 22 -18 46 -18 53 0 7 -20 -2 -46 -22 -26 -20 -51 -34 -57 -32 -5 1 -17 27 -26 57 -20 67 -57 92 -131 92 -32 0 -50 5 -50 12 0 14 42 55 83 81 22 14 27 25 27 55 0 29 6 41 25 54 23 15 29 31 53 136 9 37 7 50 -8 80 -28 55 -45 66 -76 49 -46 -24 -71 -55 -89 -109 -21 -63 -68 -135 -110 -170 -16 -13 -52 -46 -78 -72 -43 -43 -112 -88 -134 -88 -4 0 -26 25 -48 55 -22 30 -44 55 -50 55 -6 0 -35 -19 -65 -41 -30 -23 -74 -51 -97 -62 -39 -19 -43 -19 -67 -3 -14 9 -26 25 -26 35 0 23 55 51 99 51 38 0 41 17 4 26 -16 4 -33 11 -40 16 -14 11 -77 -23 -92 -49 -8 -15 -12 -14 -36 5 -41 33 -61 28 -75 -15 -7 -21 -16 -42 -20 -46 -4 -5 -30 3 -58 17 -32 16 -68 26 -96 26 -39 0 -51 6 -98 49 -77 70 -126 146 -140 217 -9 47 -18 65 -47 91 -20 18 -39 32 -43 33 -3 0 -25 -21 -47 -47z m283 -381 c-27 -14 -28 -20 -14 -42 9 -12 16 -8 45 25 25 30 37 37 45 29 14 -14 -16 -78 -54 -113 -32 -31 -86 -24 -128 16 -41 39 -44 63 -13 124 44 88 43 87 96 27 l47 -53 -24 -13z m1025 81 c25 -97 25 -96 -27 -121 l-47 -22 -22 27 c-13 16 -23 34 -23 42 0 13 89 111 102 111 4 0 12 -17 17 -37z m-670 -101 c25 -22 58 -47 74 -57 31 -20 37 -64 12 -89 -9 -8 -15 -33 -15 -60 0 -72 -67 -350 -105 -441 -8 -16 -17 -39 -20 -50 -6 -17 -12 -10 -38 40 -18 33 -74 116 -125 184 -51 69 -91 130 -88 137 5 12 -42 67 -92 108 l-22 19 14 -40 c19 -53 36 -251 36 -412 l0 -132 -27 15 c-35 18 -118 81 -218 166 -99 83 -249 190 -267 190 -21 0 -3 -36 40 -78 26 -27 77 -99 116 -167 38 -66 90 -156 116 -200 51 -86 90 -160 90 -170 0 -24 -289 79 -443 156 -61 31 -67 46 -26 66 13 7 19 13 13 13 -31 0 -181 -23 -195 -31 -14 -7 -17 -3 -16 29 1 20 -3 65 -7 98 l-8 62 73 12 c41 6 97 23 125 36 56 26 73 51 100 147 22 76 35 107 46 107 17 0 72 -41 105 -79 17 -19 34 -33 37 -31 8 8 -62 150 -74 150 -6 0 -20 -5 -31 -10 -17 -10 -19 -7 -18 22 1 44 12 81 25 85 6 2 42 -17 80 -42 l69 -46 8 78 c4 42 12 82 18 89 5 6 30 15 55 19 24 3 53 15 62 26 18 19 19 18 48 -12 l29 -31 -38 -31 c-37 -32 -45 -58 -27 -87 7 -12 12 -9 22 15 8 17 23 45 33 63 20 33 21 34 73 28 36 -3 64 -13 87 -30 19 -14 35 -26 38 -26 2 0 0 30 -5 67 -5 37 -7 83 -3 101 6 31 9 33 33 27 42 -10 86 -39 97 -63 5 -12 13 -22 16 -22 4 0 18 27 32 60 15 33 29 60 33 60 3 0 27 -17 53 -38z m325 23 c3 -8 8 -37 12 -65 4 -28 10 -53 14 -55 4 -3 25 7 46 22 50 34 131 56 156 42 27 -15 23 -57 -7 -71 -14 -6 -25 -18 -26 -27 0 -9 0 -63 1 -121 1 -101 0 -107 -27 -142 -28 -37 -40 -53 -147 -188 -32 -41 -66 -91 -75 -110 l-15 -35 -7 45 c-3 25 -27 126 -52 225 -60 237 -61 243 -47 260 8 10 8 21 -3 47 -7 18 -17 46 -21 62 -7 28 -6 28 33 24 34 -3 41 0 45 17 5 21 81 84 102 85 7 0 14 -7 18 -15z m426 -97 c11 -12 20 -31 20 -42 1 -19 2 -19 11 -3 6 10 22 17 40 17 35 0 46 -23 56 -111 4 -40 10 -59 19 -59 8 0 14 3 14 8 0 4 21 20 46 36 54 34 59 31 93 -56 25 -63 25 -71 -4 -75 -20 -3 -65 -46 -65 -63 0 -13 72 19 87 39 11 14 12 14 13 1 0 -32 -76 -122 -125 -147 -16 -9 -71 -46 -120 -83 -107 -80 -244 -170 -257 -170 -6 0 -8 92 -6 238 2 130 -1 267 -6 304 -9 71 -3 118 16 118 6 0 26 16 44 35 39 43 91 48 124 13z m-1695 -350 c-18 -82 -53 -120 -129 -143 -78 -23 -81 -21 -50 36 30 54 78 98 134 122 50 22 52 21 45 -15z m1159 -290 l28 -38 32 22 c80 57 182 142 196 164 8 13 18 24 22 24 5 0 8 -76 8 -170 0 -115 3 -170 11 -170 6 0 69 28 140 62 71 33 132 58 136 55 3 -4 -8 -37 -24 -74 -31 -70 -67 -162 -78 -199 -5 -19 0 -22 41 -28 26 -3 79 -7 118 -7 85 -2 128 -10 133 -25 5 -14 -138 -84 -170 -84 -12 0 -56 9 -97 20 -41 11 -82 20 -90 20 -8 0 -28 -21 -44 -48 -17 -26 -43 -64 -59 -85 -16 -21 -28 -39 -26 -41 2 -2 40 -15 84 -29 68 -21 156 -51 215 -73 22 -8 -7 -18 -128 -44 -93 -19 -162 -44 -162 -57 0 -8 71 -125 88 -145 21 -25 57 -22 154 9 46 15 93 27 105 28 12 0 33 10 45 22 39 35 188 100 299 128 34 9 72 23 84 31 14 9 60 18 116 21 l93 6 -16 -25 -17 -25 37 13 c55 19 88 17 118 -10 21 -17 28 -32 28 -60 0 -42 -31 -90 -63 -94 -19 -3 -21 1 -21 52 0 31 -4 56 -10 56 -5 0 -10 -17 -10 -37 0 -55 -18 -112 -47 -150 l-26 -34 52 -98 c28 -54 51 -105 51 -112 0 -19 -89 -12 -113 9 -16 14 -21 13 -66 -11 -27 -15 -54 -27 -61 -27 -12 0 -56 40 -265 243 -102 98 -120 107 -168 88 -16 -6 -10 -12 32 -41 49 -34 68 -57 56 -68 -7 -7 -195 -4 -252 4 -33 5 -43 3 -43 -8 0 -16 57 -238 70 -273 5 -14 8 -25 5 -25 -2 0 -58 26 -125 58 l-120 58 0 -173 c0 -95 -4 -173 -8 -173 -4 0 -43 39 -87 86 -47 52 -95 94 -119 105 l-41 19 -23 -28 c-12 -15 -44 -69 -70 -119 -26 -51 -49 -93 -52 -93 -3 0 -18 26 -34 57 -35 71 -112 173 -132 173 -32 0 -75 -33 -158 -122 l-87 -92 3 177 3 178 -30 -7 c-16 -3 -72 -28 -123 -55 -51 -27 -95 -49 -98 -49 -8 0 -1 35 35 174 17 65 31 123 31 130 0 8 -23 10 -87 4 -91 -8 -213 -1 -213 12 0 11 134 100 151 100 8 0 49 -11 89 -25 40 -14 85 -25 100 -25 31 0 59 28 88 85 34 69 35 82 11 96 -29 15 -206 59 -239 59 -14 0 -32 4 -40 10 -13 8 -13 9 0 13 26 7 310 101 310 102 0 1 -19 37 -42 81 -40 73 -46 79 -78 82 -19 2 -73 -4 -120 -13 l-85 -17 -78 37 c-128 62 -120 69 76 79 78 3 145 10 150 15 5 5 -12 61 -37 126 -41 104 -56 165 -41 165 3 0 41 -20 83 -44 96 -54 147 -76 179 -76 24 0 24 1 19 63 -3 34 -8 110 -12 168 l-6 107 50 -47 c27 -25 84 -70 127 -99 l79 -52 26 25 c15 15 49 63 76 109 l49 83 40 -76 c22 -42 53 -93 69 -113z m-1454 -152 c0 -8 -5 -27 -10 -42 -16 -41 -3 -41 34 -1 19 20 43 37 54 37 43 0 234 -145 431 -326 l44 -41 -46 -21 c-25 -12 -99 -37 -164 -57 -65 -19 -131 -41 -148 -48 -50 -23 -97 -39 -155 -52 l-55 -13 68 -1 c37 -1 80 -7 95 -15 15 -7 70 -25 122 -40 111 -30 213 -70 254 -99 l29 -20 -29 -21 c-16 -12 -87 -75 -157 -141 -201 -187 -246 -212 -305 -168 -15 11 -40 23 -55 27 l-29 7 4 -56 c3 -52 2 -56 -18 -51 -42 11 -95 37 -100 50 -6 17 50 158 78 197 l22 29 -23 48 c-13 26 -25 73 -28 107 -3 33 -7 67 -10 75 -11 31 -22 -25 -16 -82 5 -57 5 -58 -20 -58 -36 0 -79 40 -79 73 0 61 79 153 101 118 14 -23 65 4 95 50 30 45 26 47 -39 19 -72 -31 -73 -30 -50 63 6 22 4 25 -13 20 -15 -3 -22 -16 -26 -48 -8 -49 -25 -68 -58 -63 -33 5 -50 44 -44 107 6 63 10 69 34 48 35 -32 45 -22 55 53 3 25 3 25 23 -7 20 -34 34 -42 34 -20 0 7 14 34 30 60 17 26 30 54 30 62 0 8 -13 40 -29 72 -53 107 -51 147 11 169 45 17 58 17 58 0z m55 -1078 c26 -20 27 -22 9 -35 -34 -25 -54 -17 -54 22 0 41 7 43 45 13z" fill="#2bdcaa"/>
<path d="M3110 3818 c-27 -10 -45 -32 -60 -73 l-10 -29 33 32 c38 37 73 41 110 12 38 -30 57 -26 57 12 0 17 -3 28 -7 25 -3 -4 -12 -2 -19 4 -21 17 -78 27 -104 17z" fill="#2bdcaa"/>
<path d="M2831 3229 c-20 -23 -63 -54 -105 -75 -81 -41 -126 -79 -126 -108 0 -10 17 -58 37 -106 l37 -87 49 24 c27 14 67 43 89 65 l39 39 9 119 c5 66 12 131 16 145 9 35 -5 30 -45 -16z" fill="#2bdcaa"/>
<path d="M2305 3120 c6 -128 8 -136 33 -164 30 -32 110 -86 127 -86 15 0 90 155 88 181 -3 33 -23 50 -103 86 -49 22 -88 48 -113 76 l-38 42 6 -135z" fill="#2bdcaa"/>
<path d="M2985 2998 c-11 -7 -47 -22 -80 -34 -75 -26 -95 -60 -98 -163 -2 -57 2 -74 19 -98 27 -36 73 -42 118 -13 60 36 99 163 76 244 -7 25 -10 52 -7 61 7 18 -1 19 -28 3z" fill="#2bdcaa"/>
<path d="M2074 2932 c11 -115 54 -208 117 -254 23 -17 31 -18 67 -9 71 20 85 67 61 208 -14 78 -41 106 -98 97 -20 -3 -62 1 -95 9 l-59 16 7 -67z" fill="#2bdcaa"/>
<path d="M2537 2853 c-30 -52 -37 -58 -70 -61 -20 -2 -45 2 -57 8 -19 10 -20 8 -20 -47 0 -90 -20 -120 -110 -159 -45 -20 -92 -34 -117 -34 -42 0 -100 -16 -91 -26 3 -2 34 -7 69 -10 187 -16 179 -14 227 -73 43 -53 44 -57 39 -108 -3 -29 -3 -53 -1 -53 3 0 21 7 41 15 60 25 68 21 102 -56 18 -39 34 -70 36 -67 2 2 15 33 27 68 25 70 21 68 106 54 l42 -7 0 58 c0 48 5 67 30 106 l31 47 87 7 c48 3 93 8 100 11 22 7 4 21 -35 29 -21 4 -71 22 -111 40 -81 38 -92 54 -100 146 l-4 56 -57 -1 -56 -1 -27 58 c-15 31 -32 57 -37 57 -6 0 -25 -26 -44 -57z m113 -118 c0 -15 11 -36 25 -49 14 -13 28 -40 33 -62 6 -29 14 -40 32 -44 33 -8 35 -24 5 -44 -14 -9 -33 -32 -43 -50 -9 -18 -27 -52 -40 -76 l-24 -42 -28 27 c-23 22 -31 25 -49 16 -11 -6 -26 -21 -32 -32 -13 -26 -26 -15 -31 26 -3 26 -8 30 -36 33 -25 3 -32 7 -28 19 21 53 19 62 -18 77 -44 18 -46 34 -6 42 34 7 45 31 36 80 -6 31 -5 34 15 31 16 -1 27 7 38 28 9 17 17 32 19 35 1 2 14 -8 28 -23 27 -29 37 -28 67 10 24 30 37 29 37 -2z" fill="#2bdcaa"/>
<path d="M2527 2628 c-41 -32 -48 -108 -12 -143 28 -29 72 -32 117 -9 l30 16 -7 66 c-4 37 -9 70 -12 75 -7 12 -98 8 -116 -5z" fill="#2bdcaa"/>
<path d="M2177 2410 c-14 -11 -29 -31 -33 -43 -4 -12 -19 -49 -34 -82 -15 -33 -30 -82 -34 -108 l-6 -49 53 7 c28 3 64 8 80 11 20 4 27 2 27 -10 0 -31 29 -15 49 27 32 67 61 157 61 193 0 66 -103 101 -163 54z" fill="#2bdcaa"/>
<path d="M2895 2423 c-11 -2 -30 -6 -42 -8 -64 -14 -69 -75 -14 -189 l39 -81 82 -2 82 -3 -7 47 c-15 104 -83 247 -114 242 -3 -1 -15 -3 -26 -6z" fill="#2bdcaa"/>
<path d="M2405 2221 c-98 -46 -103 -55 -107 -199 -2 -67 0 -122 3 -122 3 0 15 13 27 30 14 19 39 34 71 44 107 32 157 75 147 128 -8 40 -57 140 -71 144 -5 1 -37 -10 -70 -25z" fill="#2bdcaa"/>
<path d="M2676 2231 c-8 -9 -29 -47 -46 -84 l-31 -68 22 -31 c22 -31 108 -78 143 -78 11 0 39 -21 63 -46 l43 -47 0 34 c0 19 -5 81 -12 139 -12 115 -20 130 -81 161 -71 37 -84 39 -101 20z" fill="#2bdcaa"/>
<path d="M1276 4033 c-4 -5 -33 -8 -64 -8 l-57 0 -3 -43 c-2 -29 3 -54 16 -76 11 -18 25 -50 32 -72 21 -65 55 -92 167 -128 28 -9 57 -24 63 -32 7 -7 16 -14 21 -14 12 0 11 57 0 97 -12 40 -6 44 42 33 28 -6 37 -5 37 5 0 7 -11 16 -24 19 -38 9 -79 49 -147 141 -64 86 -69 91 -83 78z" fill="#2bdcaa"/>
<path d="M3770 3942 c-49 -54 -93 -93 -125 -109 -27 -14 -58 -32 -67 -41 -15 -12 -20 -13 -33 -2 -14 12 -15 11 -4 -14 7 -14 15 -22 18 -17 8 12 99 33 112 26 5 -4 9 -28 9 -56 0 -32 4 -49 13 -49 24 0 169 59 189 77 11 10 31 40 45 68 14 27 34 61 44 75 11 14 22 49 26 77 l6 52 -79 -2 -79 -2 -75 -83z" fill="#2bdcaa"/>
<path d="M841 3480 c-78 -50 -84 -65 -42 -102 18 -16 31 -34 28 -41 -6 -18 70 -75 116 -88 31 -8 58 -8 105 0 70 13 86 9 76 -21 -3 -11 -2 -19 2 -16 71 33 76 40 43 60 -11 7 -38 42 -60 78 -29 46 -61 80 -111 118 -38 28 -76 52 -82 52 -7 0 -41 -18 -75 -40z" fill="#2bdcaa"/>
<path d="M4153 3465 c-28 -19 -64 -52 -79 -72 -15 -21 -46 -57 -68 -80 l-40 -43 31 0 c17 0 56 -11 86 -25 68 -31 90 -28 173 27 51 34 60 44 56 65 -4 19 1 26 27 36 17 6 31 19 31 27 0 34 -99 100 -149 100 -9 0 -40 -16 -68 -35z" fill="#2bdcaa"/>
<path d="M3509 3423 c-13 -16 -12 -17 4 -4 16 13 21 21 13 21 -2 0 -10 -8 -17 -17z" fill="#2bdcaa"/>
<path d="M4288 2662 c-9 -4 -25 -19 -36 -33 -12 -14 -39 -34 -61 -44 -23 -10 -41 -21 -41 -26 0 -4 18 -21 39 -39 22 -17 42 -39 46 -49 8 -26 69 -41 164 -41 73 0 81 2 81 19 0 12 19 31 50 51 28 18 50 36 50 41 0 5 -21 24 -46 42 -30 21 -44 37 -41 49 3 9 -2 20 -12 23 -25 10 -174 16 -193 7z" fill="#2bdcaa"/>
<path d="M3940 1970 c0 -5 5 -10 11 -10 5 0 7 5 4 10 -3 6 -8 10 -11 10 -2 0 -4 -4 -4 -10z" fill="#2bdcaa"/>
<path d="M3967 1931 c3 -12 9 -21 14 -21 14 0 11 16 -5 29 -12 10 -13 8 -9 -8z" fill="#2bdcaa"/>
<path d="M957 1865 c-54 -20 -137 -67 -137 -77 0 -4 7 -8 15 -8 8 0 15 -7 15 -15 0 -14 -13 -28 -70 -73 l-25 -20 28 -30 c33 -35 96 -54 137 -42 77 22 193 129 214 197 4 13 18 26 32 29 43 11 16 20 -146 49 -14 2 -42 -2 -63 -10z" fill="#2bdcaa"/>
<path d="M4071 1868 c-30 -5 -57 -10 -59 -13 -3 -3 -11 0 -19 7 -23 19 -28 -1 -6 -25 12 -12 29 -42 39 -67 9 -25 31 -60 48 -78 51 -56 183 -114 213 -94 28 18 93 76 93 83 0 5 -20 22 -45 39 -45 31 -59 60 -29 60 52 0 -64 75 -137 88 -24 4 -68 4 -98 0z" fill="#2bdcaa"/>
<path d="M1430 1415 c-7 -8 -33 -20 -57 -27 -67 -16 -159 -80 -182 -126 -11 -22 -27 -42 -36 -45 -11 -5 -15 -22 -15 -71 0 -36 5 -68 10 -71 6 -4 35 -9 65 -12 59 -6 54 -9 122 73 23 28 72 73 108 100 61 46 82 83 43 76 -14 -2 -18 8 -20 54 -3 60 -16 76 -38 49z" fill="#2bdcaa"/>
<path d="M3675 1404 c4 -10 9 -45 10 -78 2 -58 3 -59 62 -115 34 -31 70 -75 82 -99 12 -24 28 -45 35 -48 8 -3 40 -2 72 3 l59 8 -4 60 c-4 80 -33 133 -104 193 -43 37 -72 52 -120 64 -34 9 -71 19 -81 24 -16 6 -18 4 -11 -12z" fill="#2bdcaa"/>
<path d="M2817 1243 c-22 -25 -56 -108 -49 -119 14 -20 73 -56 80 -49 4 4 1 10 -6 12 -7 3 -17 13 -23 24 -12 24 14 86 39 92 24 5 66 -18 86 -47 24 -38 21 -56 -11 -57 -16 -1 -39 -5 -53 -9 -17 -6 -9 -7 25 -3 39 4 54 1 64 -11 7 -9 26 -16 42 -16 l29 0 0 68 0 67 -32 -34 -32 -35 -6 30 c-14 66 -53 104 -106 104 -17 0 -38 -8 -47 -17z" fill="#2bdcaa"/>
<path d="M2254 1236 c-16 -7 -48 -35 -71 -61 l-40 -47 -13 31 c-6 17 -19 36 -26 42 -12 10 -14 3 -8 -47 8 -82 7 -81 63 -98 46 -13 57 -13 104 0 28 9 58 22 66 29 27 26 -13 28 -68 4 -29 -12 -54 -19 -57 -16 -11 11 8 66 31 91 18 20 34 26 65 26 35 0 42 -4 52 -27 6 -16 13 -56 16 -90 5 -73 16 -79 67 -35 41 36 137 52 165 27 24 -22 36 -18 15 5 -20 22 -21 21 18 38 26 11 31 10 58 -17 17 -17 29 -40 29 -55 0 -29 24 -35 54 -13 29 21 15 48 -33 66 -50 18 -72 44 -54 62 8 8 16 8 32 0 28 -15 27 0 -1 26 -42 37 -47 36 -93 -6 -57 -53 -82 -53 -129 -1 -20 22 -38 40 -41 40 -10 0 -4 -27 14 -62 10 -21 16 -40 13 -43 -3 -3 -25 -5 -48 -5 -42 0 -43 1 -34 24 5 14 6 41 3 61 -5 30 -12 40 -39 51 -41 17 -70 17 -110 0z" fill="#2bdcaa"/>
<path d="M1936 1122 c-8 -16 -29 -41 -46 -55 -16 -14 -30 -29 -30 -34 0 -33 -26 -87 -55 -115 -32 -31 -35 -40 -41 -108 -4 -57 -2 -84 10 -112 9 -21 20 -38 24 -38 4 1 27 11 52 23 40 20 49 31 93 122 27 55 67 122 88 149 45 56 47 63 17 62 -18 -1 -29 12 -54 61 -17 35 -33 66 -36 69 -4 3 -13 -8 -22 -24z" fill="#2bdcaa"/>
<path d="M237 20 c-4 -16 0 -20 20 -20 19 0 24 4 19 16 -3 9 -6 18 -6 20 0 14 -29 0 -33 -16z" fill="#2bdcaa"/>
<path d="M4866 25 c-8 -22 -3 -28 19 -23 14 3 14 5 2 22 -13 18 -14 18 -21 1z" fill="#2bdcaa"/>
</g>
</svg>